<?xml version="1.0" encoding="utf-8"?>
<!-- Generator: Adobe Illustrator 22.1.0, SVG Export Plug-In . SVG Version: 6.00 Build 0)  -->
<svg version="1.1" id="Layer_1" xmlns="http://www.w3.org/2000/svg" xmlns:xlink="http://www.w3.org/1999/xlink" x="0px" y="0px"
	 viewBox="0 0 548.7 164.9" style="enable-background:new 0 0 548.7 164.9;" xml:space="preserve">
<style type="text/css">
	.st0{fill:#95B6B9;}
	.st1{fill:#3D3D3C;}
</style>
<g>
	<rect x="57.3" y="84.3" class="st0" width="20.8" height="20.3"/>
	<rect x="82.5" y="59.5" class="st0" width="20.8" height="20.3"/>
	<path class="st1" d="M153.6,103.8c-1.9,0.3-4.3,0.8-11.4,0.8c-7.8,0-13.9-2.1-13.9-12.3v-21c0-10.2,6.1-12.3,13.9-12.3
		c7.2,0,9.5,0.5,11.4,0.8c0.9,0.1,1.2,0.4,1.2,1.3v3.9c0,0.7-0.5,1.2-1.2,1.2h-12.3c-3.5,0-4.8,1.2-4.8,5.2v6.5h16.3
		c0.7,0,1.2,0.5,1.2,1.2v4.3c0,0.7-0.5,1.2-1.2,1.2h-16.3v7.8c0,4,1.3,5.2,4.8,5.2h12.3c0.7,0,1.2,0.5,1.2,1.2v3.9
		C154.8,103.3,154.5,103.6,153.6,103.8"/>
	<path class="st1" d="M170.1,77.4v8.7c0,8.5,4.2,11.3,7.7,11.3c2.2,0,4.1,0,5.9-0.2v-9.8h-2.2c-0.6,0-1.2-0.6-1.2-1.2v-4.3
		c0-0.7,0.6-1.2,1.2-1.2h9.3c0.6,0,1.2,0.5,1.2,1.2v20.2c0,0.8-0.4,1.3-1.2,1.4c-3,0.6-6.9,1-13.1,1c-6.5,0-16.1-4.3-16.1-18.5v-8.7
		c0-14.3,9.1-18.5,16.3-18.5c5.8,0,11,0.7,12.9,1.1c0.8,0.2,1.2,0.5,1.2,1.3v4c0,0.9-0.3,1.3-1.2,1.3h-0.2
		c-2.8-0.3-6.9-0.5-12.7-0.5C174,66.1,170.1,68.9,170.1,77.4"/>
	<g>
		<path class="st1" d="M233.5,105c-4.2,0-7.3-0.4-10-0.8c-1-0.2-1.1-0.4-1.1-1.1v-2.4c0-0.7,0.5-1,1-1c0.1,0,0.1,0,0.2,0
			c2.8,0.2,7.2,0.4,9.9,0.4c7.2,0,9.1-2.9,9.1-7.1c0-3-1.7-4.7-7.2-8.1l-5.8-3.5c-5.5-3.4-8.3-6.4-8.3-11.3
			c0-7.3,5.2-10.6,14.4-10.6c3.5,0,8.2,0.4,10.5,0.7c0.6,0.1,1,0.4,1,1v2.6c0,0.6-0.4,1-1,1c-0.1,0-0.1,0-0.1,0
			c-2.6-0.2-6.9-0.4-10.3-0.4c-6.2,0-8.8,1.3-8.8,5.7c0,2.8,2,4.5,6.6,7.3l5.5,3.3c7,4.2,9.4,7.5,9.4,12.3
			C248.4,98.8,245.3,105,233.5,105z"/>
		<path class="st1" d="M277.3,104.6h-2.8c-0.7,0-1.2-0.5-1.2-1.2v-1.3c-2.9,1.7-5.9,2.9-9.3,2.9c-5.1,0-9.8-2.2-9.8-9.7v-0.7
			c0-6.5,3.8-9.7,14.5-9.7h4.5v-2.4c0-5.1-1.7-6.8-6.4-6.8c-3.9,0-6.8,0.2-9.2,0.5c-0.1,0-0.2,0-0.3,0c-0.5,0-1.1-0.2-1.1-1V73
			c0-0.7,0.4-1,1.3-1.1c2.5-0.4,5.2-0.8,9.3-0.8c8.4,0,11.7,4.2,11.7,11.3v21C278.5,104.1,278,104.6,277.3,104.6z M273.2,88.6h-4.5
			c-7.3,0-9.2,1.6-9.2,5.9v0.7c0,4.3,2,5.5,5.5,5.5c2.8,0,5.2-0.8,8.1-2.4V88.6z"/>
		<path class="st1" d="M302.9,63H300c-2.8,0-3.7,0.8-3.7,4.2v4.3h6.3c0.7,0,1.1,0.5,1.1,1.1v2.3c0,0.6-0.5,1-1.1,1h-6.3v27.4
			c0,0.6-0.5,1.2-1.1,1.2h-2.9c-0.7,0-1.2-0.6-1.2-1.2V76l-5.8-0.7c-0.7-0.1-1.1-0.5-1.1-1.1v-1.6c0-0.6,0.5-1.1,1.1-1.1h5.8v-4.3
			c0-6.4,3.1-8.4,8.4-8.4c1.6,0,2.6,0.2,3.4,0.4c0.7,0.2,1.1,0.4,1.1,1v2C304,62.8,303.6,63,302.9,63z"/>
		<path class="st1" d="M334,89.7h-20.2v0.8c0,7.2,2.8,9.8,8.4,9.8c3.5,0,7.9-0.2,10.7-0.7c0.1,0,0.2,0,0.3,0c0.5,0,1,0.2,1,0.8v2
			c0,0.8-0.2,1.2-1.2,1.4c-3.4,0.7-6.7,1-10.8,1c-6.9,0-13.7-3.2-13.7-14.4v-5.4c0-8.6,4.8-14.1,13.4-14.1c8.8,0,13.2,5.5,13.2,14.1
			v3.2C335.1,89.2,334.7,89.7,334,89.7z M329.7,85.2c0-6.8-2.6-9.4-7.9-9.4c-5.2,0-8.1,2.9-8.1,9.4v0.5h15.9V85.2z"/>
		<path class="st1" d="M358.8,104.7c-1.2,0.2-2.8,0.3-3.9,0.3c-5.5,0-8.2-1.4-8.2-8.1V76l-5.8-0.7c-0.7-0.1-1.1-0.4-1.1-1.1v-1.6
			c0-0.7,0.5-1.1,1.1-1.1h5.8v-5.9c0-0.6,0.4-1.1,1.1-1.2l3.1-0.5c0.1,0,0.1,0,0.2,0c0.5,0,0.9,0.4,0.9,1v6.6h6.5
			c0.7,0,1.2,0.5,1.2,1.2v2c0,0.7-0.5,1.2-1.2,1.2H352v21c0,3.3,0.8,3.8,3.2,3.8h3.4c0.8,0,1.3,0.2,1.3,0.8v2.1
			C359.9,104.2,359.6,104.6,358.8,104.7z"/>
		<path class="st1" d="M391.1,72.9l-9.9,34.7c-1.9,6.5-4.1,8.9-11,8.9c-1.7,0-3.8-0.2-5.1-0.5c-0.7-0.2-1.3-0.4-1.3-1v-2.2
			c0-0.7,0.5-1,1.1-1c0.1,0,0.1,0,0.2,0c1.3,0.1,4,0.4,5.4,0.4c3.4,0,4.9-0.9,6-5.1l0.6-2.5h-0.8c-1.8,0-3.4-0.4-4.5-4.2l-8-27.5
			c-0.1-0.1-0.1-0.3-0.1-0.4c0-0.6,0.4-1,1.1-1h3.3c0.5,0,0.9,0.5,1,1l7.1,26.1c0.3,1.2,0.7,1.3,1.1,1.3h1l7.3-27.5
			c0.1-0.5,0.6-0.9,1.1-0.9h3.4c0.6,0,1,0.4,1,1C391.2,72.6,391.2,72.8,391.1,72.9z"/>
		<path class="st1" d="M428,104.6h-3.7c-1,0-1.6-0.4-1.9-1l-18.6-35.3c-0.1-0.1-0.1-0.2-0.2-0.2c-0.1,0-0.1,0.1-0.1,0.2v35.1
			c0,0.6-0.5,1.1-1.1,1.1h-3.1c-0.6,0-1.1-0.1-1.1-0.7V61.6c0-1,0.8-1.7,1.7-1.7h3.3c1.7,0,2,0.3,2.5,1.2l18.5,35.1l0.1,0.2
			c0.1,0,0.1-0.1,0.1-0.2V61c0-0.6,0.5-1.1,1.1-1.1h3.2c0.7,0,1.1,0.5,1.1,1.1v41.8C429.7,103.8,429,104.6,428,104.6z"/>
		<path class="st1" d="M462.9,89.7h-20.2v0.8c0,7.2,2.8,9.8,8.4,9.8c3.5,0,7.9-0.2,10.7-0.7c0.1,0,0.2,0,0.3,0c0.5,0,1,0.2,1,0.8v2
			c0,0.8-0.2,1.2-1.2,1.4c-3.4,0.7-6.7,1-10.8,1c-6.9,0-13.7-3.2-13.7-14.4v-5.4c0-8.6,4.8-14.1,13.4-14.1c8.8,0,13.2,5.5,13.2,14.1
			v3.2C464,89.2,463.6,89.7,462.9,89.7z M458.7,85.2c0-6.8-2.6-9.4-7.9-9.4c-5.2,0-8.1,2.9-8.1,9.4v0.5h15.9V85.2z"/>
		<path class="st1" d="M487.7,104.7c-1.2,0.2-2.8,0.3-3.9,0.3c-5.5,0-8.2-1.4-8.2-8.1V76l-5.8-0.7c-0.7-0.1-1.1-0.4-1.1-1.1v-1.6
			c0-0.7,0.5-1.1,1.1-1.1h5.8v-5.9c0-0.6,0.4-1.1,1.1-1.2l3.1-0.5c0.1,0,0.1,0,0.2,0c0.5,0,0.9,0.4,0.9,1v6.6h6.5
			c0.7,0,1.2,0.5,1.2,1.2v2c0,0.7-0.5,1.2-1.2,1.2h-6.5v21c0,3.3,0.8,3.8,3.2,3.8h3.4c0.8,0,1.3,0.2,1.3,0.8v2.1
			C488.8,104.2,488.5,104.6,487.7,104.7z"/>
	</g>
</g>
</svg>
