<?xml version="1.0" encoding="UTF-8"?>
<svg version="1.1" xmlns="http://www.w3.org/2000/svg" width="40px" height="40px" viewBox="0 0 64 64">>
<path d="M0 0 C0.69512695 -0.00241196 1.39025391 -0.00482391 2.10644531 -0.00730896 C3.57232381 -0.0063319 5.03823984 0.00702874 6.50390625 0.03198242 C8.74346659 0.06630612 10.97908126 0.05263786 13.21875 0.03320312 C14.64585007 0.04010192 16.07293999 0.04977464 17.5 0.0625 C19.44132812 0.0788147 19.44132812 0.0788147 21.421875 0.09545898 C24.75 0.62890625 24.75 0.62890625 27.16992188 2.34790039 C29.02980637 5.03283562 29.2645384 6.44935558 29.28125 9.69140625 C29.28898437 11.13386719 29.28898437 11.13386719 29.296875 12.60546875 C29.28140625 13.60320313 29.2659375 14.6009375 29.25 15.62890625 C29.27320312 17.12550781 29.27320312 17.12550781 29.296875 18.65234375 C29.25798314 25.90567602 29.25798314 25.90567602 26.90625 29.25390625 C24.75 30.62890625 24.75 30.62890625 21.75 31.62890625 C21.42 32.28890625 21.09 32.94890625 20.75 33.62890625 C21.69875 33.75265625 22.6475 33.87640625 23.625 34.00390625 C26.75 34.62890625 26.75 34.62890625 28.75 36.62890625 C28.97503811 39.17738981 29.07440357 41.58154294 29.0625 44.12890625 C29.07861328 44.81855469 29.09472656 45.50820313 29.11132812 46.21875 C29.11328125 48.22265625 29.11328125 48.22265625 28.75 51.62890625 C25.52208445 53.78084995 24.46599191 53.82977068 20.75 53.62890625 C20.729375 54.33015625 20.70875 55.03140625 20.6875 55.75390625 C19.23019389 60.22297833 16.94179153 62.49188271 12.75 64.62890625 C8.12884901 65.40404183 3.60286999 65.49318044 -1.06542969 65.41113281 C-3.2466839 65.37895517 -5.42053513 65.41088614 -7.6015625 65.44921875 C-19.17824406 65.48290639 -19.17824406 65.48290639 -23.69140625 61.76171875 C-26.07304172 59.27258564 -27.14627663 57.15550093 -27.25 53.62890625 C-28.384375 53.48453125 -29.51875 53.34015625 -30.6875 53.19140625 C-34.25 52.62890625 -34.25 52.62890625 -35.25 51.62890625 C-35.37653198 49.13652056 -35.43519825 46.68420184 -35.4375 44.19140625 C-35.44974609 43.49724609 -35.46199219 42.80308594 -35.47460938 42.08789062 C-35.47989842 40.26669724 -35.37169207 38.44603705 -35.25 36.62890625 C-34.59 35.96890625 -33.93 35.30890625 -33.25 34.62890625 C-32.78603307 31.73667122 -32.78603307 31.73667122 -32.625 28.50390625 C-32.55023438 27.40820312 -32.47546875 26.3125 -32.3984375 25.18359375 C-32.34945312 24.34054688 -32.30046875 23.4975 -32.25 22.62890625 C-32.91 22.62890625 -33.57 22.62890625 -34.25 22.62890625 C-35.64935013 19.83020598 -35.50265405 17.72391833 -35.25 14.62890625 C-34.125 12.75390625 -34.125 12.75390625 -32.25 11.62890625 C-29.25 11.19140625 -29.25 11.19140625 -26.25 11.62890625 C-24.3125 13.25390625 -24.3125 13.25390625 -23.25 15.62890625 C-23.47037628 19.30184421 -23.61966546 20.99857171 -26.25 23.62890625 C-26.41681109 26.71238451 -26.41681109 26.71238451 -26.25 29.62890625 C-25.528125 28.84515625 -24.80625 28.06140625 -24.0625 27.25390625 C-19.84649732 23.31897042 -16.89028395 22.52550104 -11.25 22.62890625 C-11.31960937 20.87513672 -11.31960937 20.87513672 -11.390625 19.0859375 C-11.42815594 17.53778605 -11.46455469 15.98960686 -11.5 14.44140625 C-11.53351562 13.67248047 -11.56703125 12.90355469 -11.6015625 12.11132812 C-11.61445313 11.36044922 -11.62734375 10.60957031 -11.640625 9.8359375 C-11.66157227 9.14991455 -11.68251953 8.4638916 -11.70410156 7.75708008 C-10.27473974 1.05829137 -6.23348965 -0.00349237 0 0 Z M-6.25 6.62890625 C-6.66609272 8.95191009 -6.66609272 8.95191009 -6.54296875 11.63671875 C-6.53330078 12.62285156 -6.52363281 13.60898438 -6.51367188 14.625 C-6.48853516 15.65753906 -6.46339844 16.69007812 -6.4375 17.75390625 C-6.42396484 18.79417969 -6.41042969 19.83445312 -6.39648438 20.90625 C-6.36105228 23.48098252 -6.31165221 26.05468955 -6.25 28.62890625 C-5.26 28.29890625 -4.27 27.96890625 -3.25 27.62890625 C-1.36676673 27.51413562 0.51980648 27.45069032 2.40625 27.41796875 C3.51097656 27.38960937 4.61570312 27.36125 5.75390625 27.33203125 C8.084474 27.27995152 10.41522932 27.2356792 12.74609375 27.19921875 C14.40318359 27.1528125 14.40318359 27.1528125 16.09375 27.10546875 C17.10630859 27.08564941 18.11886719 27.06583008 19.16210938 27.04541016 C21.76299978 26.82253937 21.76299978 26.82253937 23.57861328 25.32958984 C25.59204575 22.40637796 25.17976519 19.04868837 25.125 15.62890625 C25.13660156 14.90445312 25.14820312 14.18 25.16015625 13.43359375 C25.18187938 9.45559852 25.18187938 9.45559852 23.57861328 5.92114258 C21.02565946 4.11703249 19.20142944 4.25647604 16.09375 4.265625 C14.98902344 4.26626953 13.88429688 4.26691406 12.74609375 4.26757812 C11.59238281 4.28369141 10.43867187 4.29980469 9.25 4.31640625 C8.09628906 4.31318359 6.94257812 4.30996094 5.75390625 4.30664062 C-0.61287966 4.12501572 -0.61287966 4.12501572 -6.25 6.62890625 Z M-30.25 16.62890625 C-30.25 17.28890625 -30.25 17.94890625 -30.25 18.62890625 C-29.59 18.62890625 -28.93 18.62890625 -28.25 18.62890625 C-28.25 17.96890625 -28.25 17.30890625 -28.25 16.62890625 C-28.91 16.62890625 -29.57 16.62890625 -30.25 16.62890625 Z M-22.25 32.62890625 C-24.00021631 36.12933888 -23.51948691 40.08456589 -23.5625 43.94140625 C-23.59150391 44.79669922 -23.62050781 45.65199219 -23.65039062 46.53320312 C-23.69183475 50.6489234 -23.61925534 53.00695962 -21.48046875 56.609375 C-15.97174092 61.59713733 -10.48924214 60.99544698 -3.375 61.00390625 C-1.76044922 61.04064453 -1.76044922 61.04064453 -0.11328125 61.078125 C6.14271882 61.1012668 10.05206565 60.92371752 14.75 56.62890625 C16.81935577 53.5248726 17.00517909 52.80990606 17.015625 49.28515625 C17.01820312 48.45113281 17.02078125 47.61710937 17.0234375 46.7578125 C17.01183594 45.45650391 17.01183594 45.45650391 17 44.12890625 C17.00773437 43.26136719 17.01546875 42.39382812 17.0234375 41.5 C17.01957031 40.24896484 17.01957031 40.24896484 17.015625 38.97265625 C17.01336914 38.21146484 17.01111328 37.45027344 17.00878906 36.66601562 C16.86411311 34.31753879 16.86411311 34.31753879 14.75 31.62890625 C11.97024355 31.32105049 9.46473715 31.20430746 6.6875 31.25390625 C5.92123291 31.25970703 5.15496582 31.26550781 4.36547852 31.27148438 C-1.34393147 31.40222036 -5.98090565 32.32966508 -11.25 34.62890625 C-11.25 32.31890625 -11.25 30.00890625 -11.25 27.62890625 C-16.561446 26.84781125 -18.58635125 29.13178699 -22.25 32.62890625 Z M-30.25 38.62890625 C-31.45561184 39.61158484 -31.45561184 39.61158484 -31.34765625 41.4765625 C-31.33605469 42.20746094 -31.32445312 42.93835937 -31.3125 43.69140625 C-31.291875 44.99078125 -31.27125 46.29015625 -31.25 47.62890625 C-30.26 47.95890625 -29.27 48.28890625 -28.25 48.62890625 C-28.25 45.32890625 -28.25 42.02890625 -28.25 38.62890625 C-28.91 38.62890625 -29.57 38.62890625 -30.25 38.62890625 Z M21.75 38.62890625 C21.75 41.92890625 21.75 45.22890625 21.75 48.62890625 C22.74 48.29890625 23.73 47.96890625 24.75 47.62890625 C24.75 44.98890625 24.75 42.34890625 24.75 39.62890625 C23.76 39.29890625 22.77 38.96890625 21.75 38.62890625 Z " fill="#ffffff" transform="translate(35.25,-0.62890625)"/>
<path d="M0 0 C7.92 0 15.84 0 24 0 C24.33 1.32 24.66 2.64 25 4 C24 5 24 5 21.77514648 5.11352539 C20.81680908 5.10828857 19.85847168 5.10305176 18.87109375 5.09765625 C17.31938477 5.09282227 17.31938477 5.09282227 15.73632812 5.08789062 C14.64771484 5.07951172 13.55910156 5.07113281 12.4375 5.0625 C10.7987793 5.05573242 10.7987793 5.05573242 9.12695312 5.04882812 C6.41791505 5.03699826 3.70898401 5.02051543 1 5 C0.67 3.35 0.34 1.7 0 0 Z " fill="#ffffff" transform="translate(32,9)"/>
<path d="M0 0 C8.25 0 16.5 0 25 0 C24.67 1.32 24.34 2.64 24 4 C16.08 4 8.16 4 0 4 C0 2.68 0 1.36 0 0 Z " fill="#ffffff" transform="translate(32,17)"/>
<path d="M0 0 C3.3 0 6.6 0 10 0 C10.33 1.65 10.66 3.3 11 5 C7.04 5 3.08 5 -1 5 C-0.67 3.35 -0.34 1.7 0 0 Z " fill="#ffffff" transform="translate(27,48)"/>
<path d="M0 0 C2.0625 0.4375 2.0625 0.4375 4 1 C4 3.31 4 5.62 4 8 C2.0625 8.5625 2.0625 8.5625 0 9 C-1 8 -1 8 -1.125 4.5 C-1 1 -1 1 0 0 Z " fill="#ffffff" transform="translate(40,37)"/>
<path d="M0 0 C2.0625 0.4375 2.0625 0.4375 4 1 C4 3.31 4 5.62 4 8 C3.01 8.33 2.02 8.66 1 9 C0.34 8.67 -0.32 8.34 -1 8 C-1.04241723 5.66705225 -1.04092937 3.33297433 -1 1 C-0.67 0.67 -0.34 0.34 0 0 Z " fill="#ffffff" transform="translate(21,37)"/>
</svg>
